<svg width="1364" height="968" viewBox="0 0 1364 968" fill="none" xmlns="http://www.w3.org/2000/svg">
<g opacity="0.6" clip-path="url(#clip0_172_389)">
<path d="M-200.953 356.268C-139.577 285.781 -18.3712 376.97 157.25 337.061C309.359 302.479 318.11 210.622 439.642 215.177C528.431 218.487 625.183 269.755 678.356 359.072C736.996 457.551 715.68 557.81 709.696 582.139C682.983 691.263 603.698 748.827 575.728 768.487C460.488 849.44 331.173 835.254 269.135 828.479C36.0998 802.957 -213.386 636.583 -224.495 455.701C-225.971 432.021 -228.658 388.098 -200.953 356.268Z" fill="url(#paint0_linear_172_389)"/>
</g>
<g opacity="0.3">
<mask id="mask0_172_389" style="mask-type:alpha" maskUnits="userSpaceOnUse" x="1232" y="546" width="11" height="11">
<path d="M1237.23 556.425C1240.12 556.425 1242.46 554.091 1242.46 551.212C1242.46 548.334 1240.12 546 1237.23 546C1234.34 546 1232 548.334 1232 551.212C1232 554.091 1234.34 556.425 1237.23 556.425Z" fill="url(#paint1_linear_172_389)"/>
</mask>
<g mask="url(#mask0_172_389)">
<path d="M1237.23 556.425C1240.12 556.425 1242.46 554.091 1242.46 551.212C1242.46 548.334 1240.12 546 1237.23 546C1234.34 546 1232 548.334 1232 551.212C1232 554.091 1234.34 556.425 1237.23 556.425Z" fill="url(#paint2_linear_172_389)"/>
</g>
<mask id="mask1_172_389" style="mask-type:alpha" maskUnits="userSpaceOnUse" x="1262" y="546" width="11" height="11">
<path d="M1267.51 556.425C1270.4 556.425 1272.74 554.091 1272.74 551.212C1272.74 548.334 1270.4 546 1267.51 546C1264.62 546 1262.28 548.334 1262.28 551.212C1262.28 554.091 1264.62 556.425 1267.51 556.425Z" fill="url(#paint3_linear_172_389)"/>
</mask>
<g mask="url(#mask1_172_389)">
<path d="M1267.51 556.425C1270.4 556.425 1272.74 554.091 1272.74 551.212C1272.74 548.334 1270.4 546 1267.51 546C1264.62 546 1262.28 548.334 1262.28 551.212C1262.28 554.091 1264.62 556.425 1267.51 556.425Z" fill="url(#paint4_linear_172_389)"/>
</g>
<mask id="mask2_172_389" style="mask-type:alpha" maskUnits="userSpaceOnUse" x="1292" y="546" width="12" height="11">
<path d="M1297.79 556.425C1300.68 556.425 1303.02 554.091 1303.02 551.212C1303.02 548.334 1300.68 546 1297.79 546C1294.9 546 1292.56 548.334 1292.56 551.212C1292.56 554.091 1294.9 556.425 1297.79 556.425Z" fill="url(#paint5_linear_172_389)"/>
</mask>
<g mask="url(#mask2_172_389)">
<path d="M1297.79 556.425C1300.68 556.425 1303.02 554.091 1303.02 551.212C1303.02 548.334 1300.68 546 1297.79 546C1294.9 546 1292.56 548.334 1292.56 551.212C1292.56 554.091 1294.9 556.425 1297.79 556.425Z" fill="url(#paint6_linear_172_389)"/>
</g>
<mask id="mask3_172_389" style="mask-type:alpha" maskUnits="userSpaceOnUse" x="1322" y="546" width="12" height="11">
<path d="M1328.07 556.425C1330.96 556.425 1333.3 554.091 1333.3 551.212C1333.3 548.334 1330.96 546 1328.07 546C1325.18 546 1322.84 548.334 1322.84 551.212C1322.84 554.091 1325.18 556.425 1328.07 556.425Z" fill="url(#paint7_linear_172_389)"/>
</mask>
<g mask="url(#mask3_172_389)">
<path d="M1328.07 556.425C1330.96 556.425 1333.3 554.091 1333.3 551.212C1333.3 548.334 1330.96 546 1328.07 546C1325.18 546 1322.84 548.334 1322.84 551.212C1322.84 554.091 1325.18 556.425 1328.07 556.425Z" fill="url(#paint8_linear_172_389)"/>
</g>
<mask id="mask4_172_389" style="mask-type:alpha" maskUnits="userSpaceOnUse" x="1353" y="546" width="11" height="11">
<path d="M1358.35 556.425C1361.24 556.425 1363.58 554.091 1363.58 551.212C1363.58 548.334 1361.24 546 1358.35 546C1355.47 546 1353.12 548.334 1353.12 551.212C1353.12 554.091 1355.47 556.425 1358.35 556.425Z" fill="url(#paint9_linear_172_389)"/>
</mask>
<g mask="url(#mask4_172_389)">
<path d="M1358.35 556.425C1361.24 556.425 1363.58 554.091 1363.58 551.212C1363.58 548.334 1361.24 546 1358.35 546C1355.47 546 1353.12 548.334 1353.12 551.212C1353.12 554.091 1355.47 556.425 1358.35 556.425Z" fill="url(#paint10_linear_172_389)"/>
</g>
<mask id="mask5_172_389" style="mask-type:alpha" maskUnits="userSpaceOnUse" x="1232" y="572" width="11" height="11">
<path d="M1237.23 582.596C1240.12 582.596 1242.46 580.262 1242.46 577.383C1242.46 574.505 1240.12 572.171 1237.23 572.171C1234.34 572.171 1232 574.505 1232 577.383C1232 580.262 1234.34 582.596 1237.23 582.596Z" fill="url(#paint11_linear_172_389)"/>
</mask>
<g mask="url(#mask5_172_389)">
<path d="M1237.23 582.596C1240.12 582.596 1242.46 580.262 1242.46 577.383C1242.46 574.505 1240.12 572.171 1237.23 572.171C1234.34 572.171 1232 574.505 1232 577.383C1232 580.262 1234.34 582.596 1237.23 582.596Z" fill="url(#paint12_linear_172_389)"/>
</g>
<mask id="mask6_172_389" style="mask-type:alpha" maskUnits="userSpaceOnUse" x="1262" y="572" width="11" height="11">
<path d="M1267.51 582.596C1270.4 582.596 1272.74 580.262 1272.74 577.383C1272.74 574.505 1270.4 572.171 1267.51 572.171C1264.62 572.171 1262.28 574.505 1262.28 577.383C1262.28 580.262 1264.62 582.596 1267.51 582.596Z" fill="url(#paint13_linear_172_389)"/>
</mask>
<g mask="url(#mask6_172_389)">
<path d="M1267.51 582.596C1270.4 582.596 1272.74 580.262 1272.74 577.383C1272.74 574.505 1270.4 572.171 1267.51 572.171C1264.62 572.171 1262.28 574.505 1262.28 577.383C1262.28 580.262 1264.62 582.596 1267.51 582.596Z" fill="url(#paint14_linear_172_389)"/>
</g>
<mask id="mask7_172_389" style="mask-type:alpha" maskUnits="userSpaceOnUse" x="1292" y="572" width="12" height="11">
<path d="M1297.79 582.596C1300.68 582.596 1303.02 580.262 1303.02 577.383C1303.02 574.505 1300.68 572.171 1297.79 572.171C1294.9 572.171 1292.56 574.505 1292.56 577.383C1292.56 580.262 1294.9 582.596 1297.79 582.596Z" fill="url(#paint15_linear_172_389)"/>
</mask>
<g mask="url(#mask7_172_389)">
<path d="M1297.79 582.596C1300.68 582.596 1303.02 580.262 1303.02 577.383C1303.02 574.505 1300.68 572.171 1297.79 572.171C1294.9 572.171 1292.56 574.505 1292.56 577.383C1292.56 580.262 1294.9 582.596 1297.79 582.596Z" fill="url(#paint16_linear_172_389)"/>
</g>
<mask id="mask8_172_389" style="mask-type:alpha" maskUnits="userSpaceOnUse" x="1322" y="572" width="12" height="11">
<path d="M1328.07 582.596C1330.96 582.596 1333.3 580.262 1333.3 577.383C1333.3 574.505 1330.96 572.171 1328.07 572.171C1325.18 572.171 1322.84 574.505 1322.84 577.383C1322.84 580.262 1325.18 582.596 1328.07 582.596Z" fill="url(#paint17_linear_172_389)"/>
</mask>
<g mask="url(#mask8_172_389)">
<path d="M1328.07 582.596C1330.96 582.596 1333.3 580.262 1333.3 577.383C1333.3 574.505 1330.96 572.171 1328.07 572.171C1325.18 572.171 1322.84 574.505 1322.84 577.383C1322.84 580.262 1325.18 582.596 1328.07 582.596Z" fill="url(#paint18_linear_172_389)"/>
</g>
<mask id="mask9_172_389" style="mask-type:alpha" maskUnits="userSpaceOnUse" x="1353" y="572" width="11" height="11">
<path d="M1358.35 582.596C1361.24 582.596 1363.58 580.262 1363.58 577.383C1363.58 574.505 1361.24 572.171 1358.35 572.171C1355.47 572.171 1353.12 574.505 1353.12 577.383C1353.12 580.262 1355.47 582.596 1358.35 582.596Z" fill="url(#paint19_linear_172_389)"/>
</mask>
<g mask="url(#mask9_172_389)">
<path d="M1358.35 582.596C1361.24 582.596 1363.58 580.262 1363.58 577.383C1363.58 574.505 1361.24 572.171 1358.35 572.171C1355.47 572.171 1353.12 574.505 1353.12 577.383C1353.12 580.262 1355.47 582.596 1358.35 582.596Z" fill="url(#paint20_linear_172_389)"/>
</g>
<mask id="mask10_172_389" style="mask-type:alpha" maskUnits="userSpaceOnUse" x="1232" y="598" width="11" height="11">
<path d="M1237.23 608.713C1240.12 608.713 1242.46 606.379 1242.46 603.5C1242.46 600.621 1240.12 598.288 1237.23 598.288C1234.34 598.288 1232 600.621 1232 603.5C1232 606.379 1234.34 608.713 1237.23 608.713Z" fill="url(#paint21_linear_172_389)"/>
</mask>
<g mask="url(#mask10_172_389)">
<path d="M1237.23 608.713C1240.12 608.713 1242.46 606.379 1242.46 603.5C1242.46 600.621 1240.12 598.288 1237.23 598.288C1234.34 598.288 1232 600.621 1232 603.5C1232 606.379 1234.34 608.713 1237.23 608.713Z" fill="url(#paint22_linear_172_389)"/>
</g>
<mask id="mask11_172_389" style="mask-type:alpha" maskUnits="userSpaceOnUse" x="1262" y="598" width="11" height="11">
<path d="M1267.51 608.713C1270.4 608.713 1272.74 606.379 1272.74 603.5C1272.74 600.621 1270.4 598.288 1267.51 598.288C1264.62 598.288 1262.28 600.621 1262.28 603.5C1262.28 606.379 1264.62 608.713 1267.51 608.713Z" fill="url(#paint23_linear_172_389)"/>
</mask>
<g mask="url(#mask11_172_389)">
<path d="M1267.51 608.713C1270.4 608.713 1272.74 606.379 1272.74 603.5C1272.74 600.621 1270.4 598.288 1267.51 598.288C1264.62 598.288 1262.28 600.621 1262.28 603.5C1262.28 606.379 1264.62 608.713 1267.51 608.713Z" fill="url(#paint24_linear_172_389)"/>
</g>
<mask id="mask12_172_389" style="mask-type:alpha" maskUnits="userSpaceOnUse" x="1292" y="598" width="12" height="11">
<path d="M1297.79 608.713C1300.68 608.713 1303.02 606.379 1303.02 603.5C1303.02 600.621 1300.68 598.288 1297.79 598.288C1294.9 598.288 1292.56 600.621 1292.56 603.5C1292.56 606.379 1294.9 608.713 1297.79 608.713Z" fill="url(#paint25_linear_172_389)"/>
</mask>
<g mask="url(#mask12_172_389)">
<path d="M1297.79 608.713C1300.68 608.713 1303.02 606.379 1303.02 603.5C1303.02 600.621 1300.68 598.288 1297.79 598.288C1294.9 598.288 1292.56 600.621 1292.56 603.5C1292.56 606.379 1294.9 608.713 1297.79 608.713Z" fill="url(#paint26_linear_172_389)"/>
</g>
<mask id="mask13_172_389" style="mask-type:alpha" maskUnits="userSpaceOnUse" x="1322" y="598" width="12" height="11">
<path d="M1328.07 608.713C1330.96 608.713 1333.3 606.379 1333.3 603.5C1333.3 600.621 1330.96 598.288 1328.07 598.288C1325.18 598.288 1322.84 600.621 1322.84 603.5C1322.84 606.379 1325.18 608.713 1328.07 608.713Z" fill="url(#paint27_linear_172_389)"/>
</mask>
<g mask="url(#mask13_172_389)">
<path d="M1328.07 608.713C1330.96 608.713 1333.3 606.379 1333.3 603.5C1333.3 600.621 1330.96 598.288 1328.07 598.288C1325.18 598.288 1322.84 600.621 1322.84 603.5C1322.84 606.379 1325.18 608.713 1328.07 608.713Z" fill="url(#paint28_linear_172_389)"/>
</g>
<mask id="mask14_172_389" style="mask-type:alpha" maskUnits="userSpaceOnUse" x="1353" y="598" width="11" height="11">
<path d="M1358.35 608.713C1361.24 608.713 1363.58 606.379 1363.58 603.5C1363.58 600.621 1361.24 598.288 1358.35 598.288C1355.47 598.288 1353.12 600.621 1353.12 603.5C1353.12 606.379 1355.47 608.713 1358.35 608.713Z" fill="url(#paint29_linear_172_389)"/>
</mask>
<g mask="url(#mask14_172_389)">
<path d="M1358.35 608.713C1361.24 608.713 1363.58 606.379 1363.58 603.5C1363.58 600.621 1361.24 598.288 1358.35 598.288C1355.47 598.288 1353.12 600.621 1353.12 603.5C1353.12 606.379 1355.47 608.713 1358.35 608.713Z" fill="url(#paint30_linear_172_389)"/>
</g>
<mask id="mask15_172_389" style="mask-type:alpha" maskUnits="userSpaceOnUse" x="1232" y="624" width="11" height="11">
<path d="M1237.23 634.883C1240.12 634.883 1242.46 632.55 1242.46 629.671C1242.46 626.792 1240.12 624.458 1237.23 624.458C1234.34 624.458 1232 626.792 1232 629.671C1232 632.55 1234.34 634.883 1237.23 634.883Z" fill="url(#paint31_linear_172_389)"/>
</mask>
<g mask="url(#mask15_172_389)">
<path d="M1237.23 634.883C1240.12 634.883 1242.46 632.55 1242.46 629.671C1242.46 626.792 1240.12 624.458 1237.23 624.458C1234.34 624.458 1232 626.792 1232 629.671C1232 632.55 1234.34 634.883 1237.23 634.883Z" fill="url(#paint32_linear_172_389)"/>
</g>
<mask id="mask16_172_389" style="mask-type:alpha" maskUnits="userSpaceOnUse" x="1262" y="624" width="11" height="11">
<path d="M1267.51 634.883C1270.4 634.883 1272.74 632.55 1272.74 629.671C1272.74 626.792 1270.4 624.458 1267.51 624.458C1264.62 624.458 1262.28 626.792 1262.28 629.671C1262.28 632.55 1264.62 634.883 1267.51 634.883Z" fill="url(#paint33_linear_172_389)"/>
</mask>
<g mask="url(#mask16_172_389)">
<path d="M1267.51 634.883C1270.4 634.883 1272.74 632.55 1272.74 629.671C1272.74 626.792 1270.4 624.458 1267.51 624.458C1264.62 624.458 1262.28 626.792 1262.28 629.671C1262.28 632.55 1264.62 634.883 1267.51 634.883Z" fill="url(#paint34_linear_172_389)"/>
</g>
<mask id="mask17_172_389" style="mask-type:alpha" maskUnits="userSpaceOnUse" x="1292" y="624" width="12" height="11">
<path d="M1297.79 634.883C1300.68 634.883 1303.02 632.55 1303.02 629.671C1303.02 626.792 1300.68 624.458 1297.79 624.458C1294.9 624.458 1292.56 626.792 1292.56 629.671C1292.56 632.55 1294.9 634.883 1297.79 634.883Z" fill="url(#paint35_linear_172_389)"/>
</mask>
<g mask="url(#mask17_172_389)">
<path d="M1297.79 634.883C1300.68 634.883 1303.02 632.55 1303.02 629.671C1303.02 626.792 1300.68 624.458 1297.79 624.458C1294.9 624.458 1292.56 626.792 1292.56 629.671C1292.56 632.55 1294.9 634.883 1297.79 634.883Z" fill="url(#paint36_linear_172_389)"/>
</g>
<mask id="mask18_172_389" style="mask-type:alpha" maskUnits="userSpaceOnUse" x="1322" y="624" width="12" height="11">
<path d="M1328.07 634.883C1330.96 634.883 1333.3 632.55 1333.3 629.671C1333.3 626.792 1330.96 624.458 1328.07 624.458C1325.18 624.458 1322.84 626.792 1322.84 629.671C1322.84 632.55 1325.18 634.883 1328.07 634.883Z" fill="url(#paint37_linear_172_389)"/>
</mask>
<g mask="url(#mask18_172_389)">
<path d="M1328.07 634.883C1330.96 634.883 1333.3 632.55 1333.3 629.671C1333.3 626.792 1330.96 624.458 1328.07 624.458C1325.18 624.458 1322.84 626.792 1322.84 629.671C1322.84 632.55 1325.18 634.883 1328.07 634.883Z" fill="url(#paint38_linear_172_389)"/>
</g>
<mask id="mask19_172_389" style="mask-type:alpha" maskUnits="userSpaceOnUse" x="1353" y="624" width="11" height="11">
<path d="M1358.35 634.883C1361.24 634.883 1363.58 632.55 1363.58 629.671C1363.58 626.792 1361.24 624.458 1358.35 624.458C1355.47 624.458 1353.12 626.792 1353.12 629.671C1353.12 632.55 1355.47 634.883 1358.35 634.883Z" fill="url(#paint39_linear_172_389)"/>
</mask>
<g mask="url(#mask19_172_389)">
<path d="M1358.35 634.883C1361.24 634.883 1363.58 632.55 1363.58 629.671C1363.58 626.792 1361.24 624.458 1358.35 624.458C1355.47 624.458 1353.12 626.792 1353.12 629.671C1353.12 632.55 1355.47 634.883 1358.35 634.883Z" fill="url(#paint40_linear_172_389)"/>
</g>
<mask id="mask20_172_389" style="mask-type:alpha" maskUnits="userSpaceOnUse" x="1232" y="650" width="11" height="11">
<path d="M1237.23 661C1240.12 661 1242.46 658.666 1242.46 655.788C1242.46 652.909 1240.12 650.575 1237.23 650.575C1234.34 650.575 1232 652.909 1232 655.788C1232 658.666 1234.34 661 1237.23 661Z" fill="url(#paint41_linear_172_389)"/>
</mask>
<g mask="url(#mask20_172_389)">
<path d="M1237.23 661C1240.12 661 1242.46 658.666 1242.46 655.788C1242.46 652.909 1240.12 650.575 1237.23 650.575C1234.34 650.575 1232 652.909 1232 655.788C1232 658.666 1234.34 661 1237.23 661Z" fill="url(#paint42_linear_172_389)"/>
</g>
<mask id="mask21_172_389" style="mask-type:alpha" maskUnits="userSpaceOnUse" x="1262" y="650" width="11" height="11">
<path d="M1267.51 661C1270.4 661 1272.74 658.666 1272.74 655.788C1272.74 652.909 1270.4 650.575 1267.51 650.575C1264.62 650.575 1262.28 652.909 1262.28 655.788C1262.28 658.666 1264.62 661 1267.51 661Z" fill="url(#paint43_linear_172_389)"/>
</mask>
<g mask="url(#mask21_172_389)">
<path d="M1267.51 661C1270.4 661 1272.74 658.666 1272.74 655.788C1272.74 652.909 1270.4 650.575 1267.51 650.575C1264.62 650.575 1262.28 652.909 1262.28 655.788C1262.28 658.666 1264.62 661 1267.51 661Z" fill="url(#paint44_linear_172_389)"/>
</g>
<mask id="mask22_172_389" style="mask-type:alpha" maskUnits="userSpaceOnUse" x="1292" y="650" width="12" height="11">
<path d="M1297.79 661C1300.68 661 1303.02 658.666 1303.02 655.788C1303.02 652.909 1300.68 650.575 1297.79 650.575C1294.9 650.575 1292.56 652.909 1292.56 655.788C1292.56 658.666 1294.9 661 1297.79 661Z" fill="url(#paint45_linear_172_389)"/>
</mask>
<g mask="url(#mask22_172_389)">
<path d="M1297.79 661C1300.68 661 1303.02 658.666 1303.02 655.788C1303.02 652.909 1300.68 650.575 1297.79 650.575C1294.9 650.575 1292.56 652.909 1292.56 655.788C1292.56 658.666 1294.9 661 1297.79 661Z" fill="url(#paint46_linear_172_389)"/>
</g>
<mask id="mask23_172_389" style="mask-type:alpha" maskUnits="userSpaceOnUse" x="1322" y="650" width="12" height="11">
<path d="M1328.07 661C1330.96 661 1333.3 658.666 1333.3 655.788C1333.3 652.909 1330.96 650.575 1328.07 650.575C1325.18 650.575 1322.84 652.909 1322.84 655.788C1322.84 658.666 1325.18 661 1328.07 661Z" fill="url(#paint47_linear_172_389)"/>
</mask>
<g mask="url(#mask23_172_389)">
<path d="M1328.07 661C1330.96 661 1333.3 658.666 1333.3 655.788C1333.3 652.909 1330.96 650.575 1328.07 650.575C1325.18 650.575 1322.84 652.909 1322.84 655.788C1322.84 658.666 1325.18 661 1328.07 661Z" fill="url(#paint48_linear_172_389)"/>
</g>
<mask id="mask24_172_389" style="mask-type:alpha" maskUnits="userSpaceOnUse" x="1353" y="650" width="11" height="11">
<path d="M1358.35 661C1361.24 661 1363.58 658.666 1363.58 655.788C1363.58 652.909 1361.24 650.575 1358.35 650.575C1355.47 650.575 1353.12 652.909 1353.12 655.788C1353.12 658.666 1355.47 661 1358.35 661Z" fill="url(#paint49_linear_172_389)"/>
</mask>
<g mask="url(#mask24_172_389)">
<path d="M1358.35 661C1361.24 661 1363.58 658.666 1363.58 655.788C1363.58 652.909 1361.24 650.575 1358.35 650.575C1355.47 650.575 1353.12 652.909 1353.12 655.788C1353.12 658.666 1355.47 661 1358.35 661Z" fill="url(#paint50_linear_172_389)"/>
</g>
</g>
<defs>
<linearGradient id="paint0_linear_172_389" x1="383.823" y1="69.8268" x2="149.583" y2="775.635" gradientUnits="userSpaceOnUse">
<stop stop-color="#F3F7FF"/>
<stop offset="1" stop-color="#DEEEFE"/>
</linearGradient>
<linearGradient id="paint1_linear_172_389" x1="1287" y1="677.134" x2="1215.59" y2="495.33" gradientUnits="userSpaceOnUse">
<stop/>
<stop offset="1" stop-color="white"/>
</linearGradient>
<linearGradient id="paint2_linear_172_389" x1="1287" y1="677.134" x2="1215.59" y2="495.33" gradientUnits="userSpaceOnUse">
<stop stop-color="#97C3F9"/>
<stop offset="1" stop-color="#93C1F9"/>
</linearGradient>
<linearGradient id="paint3_linear_172_389" x1="1313.2" y1="666.843" x2="1241.8" y2="485.039" gradientUnits="userSpaceOnUse">
<stop/>
<stop offset="1" stop-color="white"/>
</linearGradient>
<linearGradient id="paint4_linear_172_389" x1="1313.2" y1="666.843" x2="1241.8" y2="485.039" gradientUnits="userSpaceOnUse">
<stop stop-color="#97C3F9"/>
<stop offset="1" stop-color="#93C1F9"/>
</linearGradient>
<linearGradient id="paint5_linear_172_389" x1="1339.4" y1="656.551" x2="1268" y2="474.747" gradientUnits="userSpaceOnUse">
<stop/>
<stop offset="1" stop-color="white"/>
</linearGradient>
<linearGradient id="paint6_linear_172_389" x1="1339.4" y1="656.551" x2="1268" y2="474.747" gradientUnits="userSpaceOnUse">
<stop stop-color="#97C3F9"/>
<stop offset="1" stop-color="#93C1F9"/>
</linearGradient>
<linearGradient id="paint7_linear_172_389" x1="1365.61" y1="646.259" x2="1294.21" y2="464.456" gradientUnits="userSpaceOnUse">
<stop/>
<stop offset="1" stop-color="white"/>
</linearGradient>
<linearGradient id="paint8_linear_172_389" x1="1365.61" y1="646.259" x2="1294.21" y2="464.456" gradientUnits="userSpaceOnUse">
<stop stop-color="#97C3F9"/>
<stop offset="1" stop-color="#93C1F9"/>
</linearGradient>
<linearGradient id="paint9_linear_172_389" x1="1391.81" y1="635.968" x2="1320.41" y2="454.164" gradientUnits="userSpaceOnUse">
<stop/>
<stop offset="1" stop-color="white"/>
</linearGradient>
<linearGradient id="paint10_linear_172_389" x1="1391.81" y1="635.968" x2="1320.41" y2="454.164" gradientUnits="userSpaceOnUse">
<stop stop-color="#97C3F9"/>
<stop offset="1" stop-color="#93C1F9"/>
</linearGradient>
<linearGradient id="paint11_linear_172_389" x1="1278.05" y1="680.645" x2="1206.65" y2="498.843" gradientUnits="userSpaceOnUse">
<stop/>
<stop offset="1" stop-color="white"/>
</linearGradient>
<linearGradient id="paint12_linear_172_389" x1="1278.05" y1="680.645" x2="1206.65" y2="498.843" gradientUnits="userSpaceOnUse">
<stop stop-color="#97C3F9"/>
<stop offset="1" stop-color="#93C1F9"/>
</linearGradient>
<linearGradient id="paint13_linear_172_389" x1="1304.26" y1="670.354" x2="1232.86" y2="488.551" gradientUnits="userSpaceOnUse">
<stop/>
<stop offset="1" stop-color="white"/>
</linearGradient>
<linearGradient id="paint14_linear_172_389" x1="1304.26" y1="670.354" x2="1232.86" y2="488.551" gradientUnits="userSpaceOnUse">
<stop stop-color="#97C3F9"/>
<stop offset="1" stop-color="#93C1F9"/>
</linearGradient>
<linearGradient id="paint15_linear_172_389" x1="1330.46" y1="660.062" x2="1259.06" y2="478.26" gradientUnits="userSpaceOnUse">
<stop/>
<stop offset="1" stop-color="white"/>
</linearGradient>
<linearGradient id="paint16_linear_172_389" x1="1330.46" y1="660.062" x2="1259.06" y2="478.26" gradientUnits="userSpaceOnUse">
<stop stop-color="#97C3F9"/>
<stop offset="1" stop-color="#93C1F9"/>
</linearGradient>
<linearGradient id="paint17_linear_172_389" x1="1356.67" y1="649.771" x2="1285.27" y2="467.968" gradientUnits="userSpaceOnUse">
<stop/>
<stop offset="1" stop-color="white"/>
</linearGradient>
<linearGradient id="paint18_linear_172_389" x1="1356.67" y1="649.771" x2="1285.27" y2="467.968" gradientUnits="userSpaceOnUse">
<stop stop-color="#97C3F9"/>
<stop offset="1" stop-color="#93C1F9"/>
</linearGradient>
<linearGradient id="paint19_linear_172_389" x1="1382.87" y1="639.479" x2="1311.47" y2="457.677" gradientUnits="userSpaceOnUse">
<stop/>
<stop offset="1" stop-color="white"/>
</linearGradient>
<linearGradient id="paint20_linear_172_389" x1="1382.87" y1="639.479" x2="1311.47" y2="457.677" gradientUnits="userSpaceOnUse">
<stop stop-color="#97C3F9"/>
<stop offset="1" stop-color="#93C1F9"/>
</linearGradient>
<linearGradient id="paint21_linear_172_389" x1="1269.11" y1="684.158" x2="1197.71" y2="502.354" gradientUnits="userSpaceOnUse">
<stop/>
<stop offset="1" stop-color="white"/>
</linearGradient>
<linearGradient id="paint22_linear_172_389" x1="1269.11" y1="684.158" x2="1197.71" y2="502.354" gradientUnits="userSpaceOnUse">
<stop stop-color="#97C3F9"/>
<stop offset="1" stop-color="#93C1F9"/>
</linearGradient>
<linearGradient id="paint23_linear_172_389" x1="1295.32" y1="673.867" x2="1223.91" y2="492.063" gradientUnits="userSpaceOnUse">
<stop/>
<stop offset="1" stop-color="white"/>
</linearGradient>
<linearGradient id="paint24_linear_172_389" x1="1295.32" y1="673.867" x2="1223.91" y2="492.063" gradientUnits="userSpaceOnUse">
<stop stop-color="#97C3F9"/>
<stop offset="1" stop-color="#93C1F9"/>
</linearGradient>
<linearGradient id="paint25_linear_172_389" x1="1321.52" y1="663.575" x2="1250.12" y2="481.771" gradientUnits="userSpaceOnUse">
<stop/>
<stop offset="1" stop-color="white"/>
</linearGradient>
<linearGradient id="paint26_linear_172_389" x1="1321.52" y1="663.575" x2="1250.12" y2="481.771" gradientUnits="userSpaceOnUse">
<stop stop-color="#97C3F9"/>
<stop offset="1" stop-color="#93C1F9"/>
</linearGradient>
<linearGradient id="paint27_linear_172_389" x1="1347.72" y1="653.283" x2="1276.32" y2="471.48" gradientUnits="userSpaceOnUse">
<stop/>
<stop offset="1" stop-color="white"/>
</linearGradient>
<linearGradient id="paint28_linear_172_389" x1="1347.72" y1="653.283" x2="1276.32" y2="471.48" gradientUnits="userSpaceOnUse">
<stop stop-color="#97C3F9"/>
<stop offset="1" stop-color="#93C1F9"/>
</linearGradient>
<linearGradient id="paint29_linear_172_389" x1="1373.93" y1="642.992" x2="1302.53" y2="461.188" gradientUnits="userSpaceOnUse">
<stop/>
<stop offset="1" stop-color="white"/>
</linearGradient>
<linearGradient id="paint30_linear_172_389" x1="1373.93" y1="642.992" x2="1302.53" y2="461.188" gradientUnits="userSpaceOnUse">
<stop stop-color="#97C3F9"/>
<stop offset="1" stop-color="#93C1F9"/>
</linearGradient>
<linearGradient id="paint31_linear_172_389" x1="1260.17" y1="687.67" x2="1188.77" y2="505.866" gradientUnits="userSpaceOnUse">
<stop/>
<stop offset="1" stop-color="white"/>
</linearGradient>
<linearGradient id="paint32_linear_172_389" x1="1260.17" y1="687.67" x2="1188.77" y2="505.866" gradientUnits="userSpaceOnUse">
<stop stop-color="#97C3F9"/>
<stop offset="1" stop-color="#93C1F9"/>
</linearGradient>
<linearGradient id="paint33_linear_172_389" x1="1286.37" y1="677.379" x2="1214.97" y2="495.575" gradientUnits="userSpaceOnUse">
<stop/>
<stop offset="1" stop-color="white"/>
</linearGradient>
<linearGradient id="paint34_linear_172_389" x1="1286.37" y1="677.379" x2="1214.97" y2="495.575" gradientUnits="userSpaceOnUse">
<stop stop-color="#97C3F9"/>
<stop offset="1" stop-color="#93C1F9"/>
</linearGradient>
<linearGradient id="paint35_linear_172_389" x1="1312.58" y1="667.087" x2="1241.18" y2="485.283" gradientUnits="userSpaceOnUse">
<stop/>
<stop offset="1" stop-color="white"/>
</linearGradient>
<linearGradient id="paint36_linear_172_389" x1="1312.58" y1="667.087" x2="1241.18" y2="485.283" gradientUnits="userSpaceOnUse">
<stop stop-color="#97C3F9"/>
<stop offset="1" stop-color="#93C1F9"/>
</linearGradient>
<linearGradient id="paint37_linear_172_389" x1="1338.78" y1="656.796" x2="1267.38" y2="474.992" gradientUnits="userSpaceOnUse">
<stop/>
<stop offset="1" stop-color="white"/>
</linearGradient>
<linearGradient id="paint38_linear_172_389" x1="1338.78" y1="656.796" x2="1267.38" y2="474.992" gradientUnits="userSpaceOnUse">
<stop stop-color="#97C3F9"/>
<stop offset="1" stop-color="#93C1F9"/>
</linearGradient>
<linearGradient id="paint39_linear_172_389" x1="1364.99" y1="646.504" x2="1293.58" y2="464.7" gradientUnits="userSpaceOnUse">
<stop/>
<stop offset="1" stop-color="white"/>
</linearGradient>
<linearGradient id="paint40_linear_172_389" x1="1364.99" y1="646.504" x2="1293.58" y2="464.7" gradientUnits="userSpaceOnUse">
<stop stop-color="#97C3F9"/>
<stop offset="1" stop-color="#93C1F9"/>
</linearGradient>
<linearGradient id="paint41_linear_172_389" x1="1251.23" y1="691.182" x2="1179.82" y2="509.378" gradientUnits="userSpaceOnUse">
<stop/>
<stop offset="1" stop-color="white"/>
</linearGradient>
<linearGradient id="paint42_linear_172_389" x1="1251.23" y1="691.182" x2="1179.82" y2="509.378" gradientUnits="userSpaceOnUse">
<stop stop-color="#97C3F9"/>
<stop offset="1" stop-color="#93C1F9"/>
</linearGradient>
<linearGradient id="paint43_linear_172_389" x1="1277.43" y1="680.891" x2="1206.03" y2="499.087" gradientUnits="userSpaceOnUse">
<stop/>
<stop offset="1" stop-color="white"/>
</linearGradient>
<linearGradient id="paint44_linear_172_389" x1="1277.43" y1="680.891" x2="1206.03" y2="499.087" gradientUnits="userSpaceOnUse">
<stop stop-color="#97C3F9"/>
<stop offset="1" stop-color="#93C1F9"/>
</linearGradient>
<linearGradient id="paint45_linear_172_389" x1="1303.64" y1="670.599" x2="1232.23" y2="488.795" gradientUnits="userSpaceOnUse">
<stop/>
<stop offset="1" stop-color="white"/>
</linearGradient>
<linearGradient id="paint46_linear_172_389" x1="1303.64" y1="670.599" x2="1232.23" y2="488.795" gradientUnits="userSpaceOnUse">
<stop stop-color="#97C3F9"/>
<stop offset="1" stop-color="#93C1F9"/>
</linearGradient>
<linearGradient id="paint47_linear_172_389" x1="1329.84" y1="660.308" x2="1258.44" y2="478.504" gradientUnits="userSpaceOnUse">
<stop/>
<stop offset="1" stop-color="white"/>
</linearGradient>
<linearGradient id="paint48_linear_172_389" x1="1329.84" y1="660.308" x2="1258.44" y2="478.504" gradientUnits="userSpaceOnUse">
<stop stop-color="#97C3F9"/>
<stop offset="1" stop-color="#93C1F9"/>
</linearGradient>
<linearGradient id="paint49_linear_172_389" x1="1356.04" y1="650.016" x2="1284.64" y2="468.212" gradientUnits="userSpaceOnUse">
<stop/>
<stop offset="1" stop-color="white"/>
</linearGradient>
<linearGradient id="paint50_linear_172_389" x1="1356.04" y1="650.016" x2="1284.64" y2="468.212" gradientUnits="userSpaceOnUse">
<stop stop-color="#97C3F9"/>
<stop offset="1" stop-color="#93C1F9"/>
</linearGradient>
<clipPath id="clip0_172_389">
<rect width="937.962" height="671.376" fill="white" transform="translate(-66.4224) rotate(21.4558)"/>
</clipPath>
</defs>
</svg>
