<svg width="80" height="72" viewBox="0 0 80 72" fill="none" xmlns="http://www.w3.org/2000/svg">
<g clip-path="url(#clip0_134_1643)">
<path d="M66.4754 14.0107H13.2583V71.1274H66.4754V14.0107Z" fill="url(#paint0_linear_134_1643)"/>
<path d="M13.0381 14.0107C13.1023 14.0107 13.1665 14.0383 13.2583 14.0658C13.2583 33.068 13.2583 52.0701 13.2583 71.0998C9.13856 71.421 5.6611 70.3841 2.89931 67.7233C0.944961 65.8332 -0.000101981 63.6127 -0.000101981 61.0987C-0.000101981 52.1986 -0.000101981 43.3077 -0.000101981 34.4076C-0.000101981 31.0127 -0.00927734 27.6178 -0.00927734 24.2229C-0.00927734 20.1215 2.20199 17.1395 6.26667 15.1209C8.35865 14.0933 10.68 13.9373 13.0381 14.0107Z" fill="url(#paint1_linear_134_1643)"/>
<path d="M57.1808 14.0016C59.5573 14.0016 59.7958 14.0016 62.1631 14.0016C62.1631 33.068 62.1631 52.0701 62.1631 71.109C46.0053 71.109 33.7837 71.109 17.5708 71.109C17.5708 52.0793 17.5708 33.0771 17.5708 14.0199C19.938 14.0199 20.4519 14.0199 22.865 14.0199C22.865 13.7813 22.865 13.5978 22.865 13.4235C22.865 11.3774 22.8742 9.32212 22.8558 7.27601C22.8375 5.84466 23.2228 4.59681 24.3422 3.62422C25.1313 2.94524 26.0397 2.59658 27.0673 2.59658C30.2512 2.5874 33.4258 2.5874 36.6097 2.5874C41.9589 2.5874 47.3173 2.59658 52.6666 2.5874C54.0704 2.5874 55.2357 3.04617 56.1532 4.11051C56.8872 4.96382 57.1625 5.96394 57.1625 7.08333C57.1533 9.23954 57.1625 11.3958 57.1625 13.552C57.1533 13.6712 57.1625 13.8089 57.1808 14.0016ZM28.6088 14.0016C28.829 14.0016 28.9941 14.0016 29.1593 14.0016C31.6917 14.0016 34.2333 14.0016 36.7657 14.0016C41.5002 14.0016 46.2438 14.0016 50.9783 14.0107C51.3545 14.0107 51.4371 13.8914 51.4371 13.5336C51.4187 11.9279 51.4371 10.3222 51.4371 8.71654C51.4371 8.58809 51.4187 8.45963 51.4004 8.322C43.7848 8.322 36.2151 8.322 28.6088 8.322C28.6088 10.2121 28.6088 12.0656 28.6088 14.0016Z" fill="white"/>
<mask id="mask0_134_1643" style="mask-type:alpha" maskUnits="userSpaceOnUse" x="17" y="2" width="46" height="70">
<path d="M57.1808 14.0016C59.5573 14.0016 59.7958 14.0016 62.1631 14.0016C62.1631 33.068 62.1631 52.0701 62.1631 71.109C46.0053 71.109 33.7837 71.109 17.5708 71.109C17.5708 52.0793 17.5708 33.0771 17.5708 14.0199C19.938 14.0199 20.4519 14.0199 22.865 14.0199C22.865 13.7813 22.865 13.5978 22.865 13.4235C22.865 11.3774 22.8742 9.32212 22.8558 7.27601C22.8375 5.84466 23.2228 4.59681 24.3422 3.62422C25.1313 2.94524 26.0397 2.59658 27.0673 2.59658C30.2512 2.5874 33.4258 2.5874 36.6097 2.5874C41.9589 2.5874 47.3173 2.59658 52.6666 2.5874C54.0704 2.5874 55.2357 3.04617 56.1532 4.11051C56.8872 4.96382 57.1625 5.96394 57.1625 7.08333C57.1533 9.23954 57.1625 11.3958 57.1625 13.552C57.1533 13.6712 57.1625 13.8089 57.1808 14.0016ZM28.6088 14.0016C28.829 14.0016 28.9941 14.0016 29.1593 14.0016C31.6917 14.0016 34.2333 14.0016 36.7657 14.0016C41.5002 14.0016 46.2438 14.0016 50.9783 14.0107C51.3545 14.0107 51.4371 13.8914 51.4371 13.5336C51.4187 11.9279 51.4371 10.3222 51.4371 8.71654C51.4371 8.58809 51.4187 8.45963 51.4004 8.322C43.7848 8.322 36.2151 8.322 28.6088 8.322C28.6088 10.2121 28.6088 12.0656 28.6088 14.0016Z" fill="#F7F9FC"/>
</mask>
<g mask="url(#mask0_134_1643)">
<path d="M58.096 0H21V14.02H58.096V0Z" fill="url(#paint2_linear_134_1643)"/>
</g>
<path d="M80 24.0763C80 20.2961 77.9355 17.4792 74.2654 15.4331C72.0082 14.1761 69.4483 13.9375 66.8241 13.9926C66.4204 14.0018 66.4755 14.2128 66.4755 14.433C66.4755 21.0393 66.4755 27.6364 66.4755 34.2426C66.4755 45.8495 66.4755 57.4471 66.4663 69.054C66.4663 69.7238 66.4663 70.3936 66.4663 71.1184C68.1179 71.1735 69.6869 71.1826 71.2283 70.8156C76.4399 69.5861 79.9908 65.7049 79.9908 61.1264C80.0092 48.7856 80 36.4264 80 24.0763Z" fill="url(#paint3_linear_134_1643)"/>
<path d="M44.216 46.7854C44.216 47.969 44.216 49.0884 44.216 50.217C44.216 51.4924 44.216 52.7678 44.216 54.034C44.216 54.7955 43.8306 55.1992 43.0782 55.1992C41.0046 55.2084 38.931 55.2084 36.8573 55.1992C36.1692 55.1992 35.7838 54.768 35.7838 54.0431C35.7838 51.7676 35.7838 49.4922 35.7838 47.2167C35.7838 47.0882 35.7838 46.9506 35.7838 46.7854C35.6095 46.7854 35.481 46.7854 35.3434 46.7854C33.1046 46.7854 30.8567 46.7854 28.6179 46.7854C27.7279 46.7854 27.3608 46.4276 27.3608 45.5376C27.3608 43.5649 27.3608 41.5922 27.3608 39.6195C27.3608 38.7203 27.7187 38.3624 28.6087 38.3624C30.8383 38.3624 33.0679 38.3624 35.2975 38.3624C35.4443 38.3624 35.582 38.3624 35.7746 38.3624C35.7746 38.2156 35.7746 38.0964 35.7746 37.9771C35.7746 35.7016 35.7746 33.4261 35.7746 31.1506C35.7746 30.3065 36.1508 29.9395 36.995 29.9395C38.9677 29.9395 40.9404 29.9395 42.9131 29.9395C43.8398 29.9395 44.1976 30.2881 44.1976 31.2332C44.2068 33.4903 44.1976 35.7383 44.1976 37.9954C44.1976 38.1055 44.1976 38.2156 44.1976 38.3716C44.3444 38.3716 44.4729 38.3716 44.5922 38.3716C46.8677 38.3716 49.1432 38.3716 51.4186 38.3808C52.2536 38.3808 52.6114 38.7478 52.6114 39.5828C52.6114 41.5646 52.6114 43.5465 52.6114 45.5284C52.6114 46.4368 52.2628 46.7854 51.3728 46.7854C49.1065 46.7854 46.8401 46.7854 44.583 46.7946C44.4912 46.7854 44.3811 46.7854 44.216 46.7854Z" fill="url(#paint4_linear_134_1643)"/>
</g>
<defs>
<linearGradient id="paint0_linear_134_1643" x1="13.2596" y1="42.5656" x2="66.4729" y2="42.5656" gradientUnits="userSpaceOnUse">
<stop stop-color="#B0F4FF"/>
<stop offset="1" stop-color="#69DCFC"/>
</linearGradient>
<linearGradient id="paint1_linear_134_1643" x1="-0.00010198" y1="42.5746" x2="13.2596" y2="42.5746" gradientUnits="userSpaceOnUse">
<stop stop-color="#6CBCFC"/>
<stop offset="1" stop-color="#458DFC"/>
</linearGradient>
<linearGradient id="paint2_linear_134_1643" x1="20.9962" y1="7.00849" x2="58.0944" y2="7.00849" gradientUnits="userSpaceOnUse">
<stop stop-color="#6CBCFC"/>
<stop offset="1" stop-color="#458DFC"/>
</linearGradient>
<linearGradient id="paint3_linear_134_1643" x1="66.4686" y1="42.5692" x2="80.0007" y2="42.5692" gradientUnits="userSpaceOnUse">
<stop stop-color="#6CBCFC"/>
<stop offset="1" stop-color="#458DFC"/>
</linearGradient>
<linearGradient id="paint4_linear_134_1643" x1="27.3665" y1="42.5785" x2="52.6298" y2="42.5785" gradientUnits="userSpaceOnUse">
<stop stop-color="#6CBCFC"/>
<stop offset="1" stop-color="#458DFC"/>
</linearGradient>
<clipPath id="clip0_134_1643">
<rect width="80" height="71.1549" fill="white"/>
</clipPath>
</defs>
</svg>
