<svg width="68" height="95" viewBox="0 0 68 95" fill="none" xmlns="http://www.w3.org/2000/svg">
<g clip-path="url(#clip0_134_1600)">
<path d="M67.7107 90.4479C67.7107 92.927 65.7042 94.9417 63.2252 94.9417L5.22026 95.0081C3.24697 95.0081 1.57215 93.7395 0.9669 91.9735C0.809368 91.5175 0.726457 91.0366 0.726457 90.5308L0.635254 6.88142C0.635254 4.40237 2.64171 2.38762 5.12077 2.38762L58.3831 2.32958L63.1257 2.32129C65.6047 2.32129 67.6195 4.32775 67.6195 6.8068L67.7107 90.4479Z" fill="url(#paint0_linear_134_1600)"/>
<path d="M61.6996 89.9674L6.73758 90.0255C5.4027 90.0255 4.32485 88.9476 4.32485 87.6128L4.24194 9.76715C4.24194 8.43227 5.31979 7.35442 6.65467 7.35442L61.6084 7.29639C62.9433 7.29639 64.0211 8.37424 64.0211 9.70911L64.1041 87.5547C64.1123 88.8813 63.0345 89.9674 61.6996 89.9674Z" fill="white"/>
<path d="M53.9804 13.7137L13.8927 13.7634C12.5661 13.7634 11.48 12.6856 11.48 11.359L11.4717 4.67635C11.4717 3.34976 12.5495 2.26362 13.8761 2.26362L53.9721 2.22217C55.2987 2.22217 56.3848 3.30002 56.3848 4.6266L56.3931 11.3093C56.3848 12.6359 55.307 13.7137 53.9804 13.7137ZM13.8761 3.49071C13.2294 3.49071 12.6988 4.02135 12.6988 4.66806L12.7071 11.3507C12.7071 11.9974 13.2377 12.5281 13.8844 12.5281L53.9804 12.4866C54.6271 12.4866 55.1578 11.956 55.1578 11.3093L55.1495 4.6266C55.1495 3.97989 54.6188 3.44926 53.9721 3.44926L13.8761 3.49071Z" fill="url(#paint1_linear_134_1600)"/>
<path d="M52.8446 5.11564L15.41 5.1571C14.9955 5.1571 14.6638 4.82545 14.6638 4.41089V0.787659C14.6638 0.373102 14.9955 0.0414557 15.41 0.0414557L52.8363 0C53.2509 0 53.5825 0.331646 53.5825 0.746203V4.36944C53.5908 4.78399 53.2591 5.11564 52.8446 5.11564Z" fill="url(#paint2_linear_134_1600)"/>
<path d="M15.4432 5.15714L52.8114 5.11568C53.2425 5.11568 53.5908 4.76746 53.5908 4.33632V2.56201L14.6555 2.60347V4.37777C14.6555 4.80891 15.012 5.15714 15.4432 5.15714Z" fill="#58D6F4"/>
<path d="M28.5763 81.2116L25.3428 61.6445L22.7228 70.1595L15.2276 70.1678C14.7715 70.1678 14.4067 69.803 14.4067 69.347C14.4067 68.891 14.7715 68.5262 15.2276 68.5262L21.5205 68.5179L25.8402 54.4976L29.0738 74.1144L33.2691 60.6413L35.4994 67.0255L40.5239 54.8458L45.4074 74.1642L47.248 68.0204L52.6372 68.0121C53.0932 68.0121 53.4581 68.3769 53.4581 68.833C53.4581 69.289 53.0932 69.6538 52.6372 69.6538L48.4668 69.6621L45.2747 80.3162L40.1508 60.0526L35.3668 71.6354L33.352 65.873L28.5763 81.2116Z" fill="#58D6F4"/>
<path d="M23.0213 43.4869L12.4832 43.4952C10.7835 43.4952 9.39061 42.1106 9.39061 40.4109L9.37402 25.6776C9.37402 23.9779 10.7586 22.585 12.4583 22.585L22.9964 22.5767C24.6961 22.5767 26.089 23.9613 26.089 25.661L26.1056 40.3943C26.1056 42.094 24.7209 43.4787 23.0213 43.4869ZM12.45 23.4804C11.2395 23.4804 10.2612 24.467 10.2612 25.6776L10.2778 40.4109C10.2778 41.6214 11.2644 42.5998 12.4749 42.5998L23.013 42.5915C24.2235 42.5915 25.2018 41.6049 25.2018 40.3943L25.1853 25.661C25.1853 24.4505 24.1986 23.4721 22.9881 23.4721L12.45 23.4804Z" fill="url(#paint3_linear_134_1600)"/>
<path d="M17.7398 40.6596C22.7228 40.6513 24.2732 37.7742 24.2732 37.7742C24.0493 37.4923 23.7674 37.2436 23.386 36.9949C22.076 36.1409 21.0231 35.7761 20.5836 35.4113C20.1359 35.0547 19.8872 34.5324 19.8872 34.5324L19.6136 34.6982C19.6136 34.6982 19.4477 34.1261 19.539 33.2556C19.539 33.2556 19.9286 33.1561 20.2188 31.8378C20.6831 31.929 21.2303 30.7516 20.9733 30.3205C20.8075 30.0386 20.6085 30.0635 20.4676 30.1298C20.6085 29.5411 21.2469 26.2827 17.7315 26.2827C14.216 26.2827 14.8544 29.5411 15.0037 30.1298C14.8627 30.0635 14.6638 30.0386 14.4979 30.3205C14.2409 30.7516 14.7964 31.929 15.2607 31.8378C15.5509 33.1561 15.9489 33.2473 15.9489 33.2473C16.0484 34.1096 15.8743 34.6899 15.8743 34.6899L15.6007 34.5241C15.6007 34.5241 15.3519 35.0382 14.9042 35.403C14.4565 35.7678 13.4118 36.1409 12.1018 36.9949C11.7204 37.2436 11.4302 37.4923 11.2146 37.7742C11.2063 37.7908 12.7651 40.6679 17.7398 40.6596Z" fill="url(#paint4_linear_134_1600)"/>
<path d="M50.5562 27.2781L30.2678 27.3029C29.8864 27.3029 29.5796 26.9962 29.5796 26.6148V26.4987C29.5796 26.1173 29.8864 25.8105 30.2678 25.8105L50.5562 25.7856C50.9376 25.7856 51.2444 26.0924 51.2444 26.4738V26.5899C51.2444 26.9713 50.9293 27.2781 50.5562 27.2781Z" fill="url(#paint5_linear_134_1600)"/>
<path d="M43.0942 31.1414L30.2678 31.1579C29.8864 31.1579 29.5796 30.8512 29.5796 30.4698V30.3537C29.5796 29.9723 29.8864 29.6655 30.2678 29.6655L43.0942 29.6489C43.4756 29.6489 43.7823 29.9557 43.7823 30.3371V30.4532C43.7823 30.8346 43.4756 31.1414 43.0942 31.1414Z" fill="url(#paint6_linear_134_1600)"/>
<path opacity="0.6" d="M57.5539 35.7351L30.2761 35.7682C29.8947 35.7682 29.5879 35.4615 29.5879 35.0801V34.964C29.5879 34.5826 29.8947 34.2758 30.2761 34.2758L57.5539 34.2427C57.9353 34.2427 58.2421 34.5494 58.2421 34.9308V35.0469C58.2338 35.4283 57.927 35.7351 57.5539 35.7351Z" fill="url(#paint7_linear_134_1600)"/>
<path opacity="0.6" d="M56.9654 48.6443L11.4635 48.694C11.0738 48.694 10.7505 48.3789 10.7505 47.981V47.9146C10.7505 47.525 11.0656 47.2016 11.4635 47.2016L56.9654 47.1519C57.355 47.1519 57.6784 47.4669 57.6784 47.8649V47.9312C57.6784 48.3292 57.355 48.6443 56.9654 48.6443Z" fill="url(#paint8_linear_134_1600)"/>
<path opacity="0.6" d="M57.5539 40.2453L30.2761 40.2785C29.8947 40.2785 29.5879 39.9717 29.5879 39.5903V39.4743C29.5879 39.0929 29.8947 38.7861 30.2761 38.7861L57.5539 38.7529C57.9353 38.7529 58.2421 39.0597 58.2421 39.4411V39.5572C58.2421 39.9386 57.9353 40.2453 57.5539 40.2453Z" fill="url(#paint9_linear_134_1600)"/>
</g>
<defs>
<linearGradient id="paint0_linear_134_1600" x1="-8.65343" y1="34.7477" x2="76.9993" y2="62.578" gradientUnits="userSpaceOnUse">
<stop stop-color="#6CBCFC"/>
<stop offset="0.1713" stop-color="#5EABFC"/>
<stop offset="0.4084" stop-color="#509AFC"/>
<stop offset="0.6698" stop-color="#4890FC"/>
<stop offset="1" stop-color="#458DFC"/>
</linearGradient>
<linearGradient id="paint1_linear_134_1600" x1="-4.58984" y1="-21.3748" x2="56.3866" y2="7.98985" gradientUnits="userSpaceOnUse">
<stop stop-color="#CFE9FF"/>
<stop offset="1" stop-color="#A1D6FB"/>
</linearGradient>
<linearGradient id="paint2_linear_134_1600" x1="14.6543" y1="2.57952" x2="53.5901" y2="2.57952" gradientUnits="userSpaceOnUse">
<stop stop-color="#B0F4FF"/>
<stop offset="1" stop-color="#69DCFC"/>
</linearGradient>
<linearGradient id="paint3_linear_134_1600" x1="14.7701" y1="29.2074" x2="24.5507" y2="41.8333" gradientUnits="userSpaceOnUse">
<stop stop-color="#6CBCFC"/>
<stop offset="1" stop-color="#458DFC"/>
</linearGradient>
<linearGradient id="paint4_linear_134_1600" x1="13.7093" y1="30.0291" x2="23.4899" y2="42.655" gradientUnits="userSpaceOnUse">
<stop stop-color="#B0F4FF"/>
<stop offset="0.0994384" stop-color="#A1EFFE"/>
<stop offset="0.2994" stop-color="#88E7FD"/>
<stop offset="0.5095" stop-color="#77E1FD"/>
<stop offset="0.7344" stop-color="#6CDDFC"/>
<stop offset="1" stop-color="#69DCFC"/>
</linearGradient>
<linearGradient id="paint5_linear_134_1600" x1="29.5807" y1="26.5511" x2="51.24" y2="26.5641" gradientUnits="userSpaceOnUse">
<stop stop-color="#6CBCFC"/>
<stop offset="1" stop-color="#458DFC"/>
</linearGradient>
<linearGradient id="paint6_linear_134_1600" x1="29.5847" y1="30.4034" x2="43.7815" y2="30.4034" gradientUnits="userSpaceOnUse">
<stop stop-color="#6CBCFC"/>
<stop offset="1" stop-color="#458DFC"/>
</linearGradient>
<linearGradient id="paint7_linear_134_1600" x1="29.5894" y1="35.01" x2="58.2375" y2="35.01" gradientUnits="userSpaceOnUse">
<stop stop-color="#6CBCFC"/>
<stop offset="1" stop-color="#458DFC"/>
</linearGradient>
<linearGradient id="paint8_linear_134_1600" x1="10.7501" y1="47.9273" x2="57.6761" y2="47.9273" gradientUnits="userSpaceOnUse">
<stop stop-color="#6CBCFC"/>
<stop offset="1" stop-color="#458DFC"/>
</linearGradient>
<linearGradient id="paint9_linear_134_1600" x1="29.594" y1="39.5192" x2="58.2421" y2="39.5192" gradientUnits="userSpaceOnUse">
<stop stop-color="#6CBCFC"/>
<stop offset="1" stop-color="#458DFC"/>
</linearGradient>
<clipPath id="clip0_134_1600">
<rect width="67.0754" height="95" fill="white" transform="translate(0.635254)"/>
</clipPath>
</defs>
</svg>
